<svg width="300" height="339" viewBox="0 0 300 339" fill="none" xmlns="http://www.w3.org/2000/svg">
<path d="M258.359 173.627C255.126 171.58 255.126 166.932 258.359 164.886C283.589 148.917 300.277 120.685 299.996 88.5636C299.566 39.2644 258.349 0 209.022 0H90.9782C41.6517 0 0.43423 39.2624 0.00348829 88.5636C-0.277254 120.685 16.4112 148.917 41.6405 164.886C44.8736 166.932 44.8736 171.582 41.6405 173.629C16.4112 189.595 -0.277254 217.828 0.00348829 249.949C0.433217 299.248 41.6507 338.512 90.9772 338.512H209.021C258.346 338.512 299.563 299.25 299.995 249.949C300.276 217.828 283.589 189.595 258.359 173.627ZM210.596 18.9263C249.452 18.9263 281.062 50.5235 281.062 89.3592C281.062 128.195 249.45 159.791 210.596 159.791C171.742 159.791 140.128 128.195 140.128 89.3592C140.128 50.5235 171.741 18.9263 210.596 18.9263ZM140.611 29.9482C141.797 29.1921 143.124 30.7185 142.218 31.7928C129.099 47.3421 121.193 67.4278 121.193 89.3602C121.193 111.293 129.099 131.378 142.218 146.928C143.124 148.003 141.798 149.527 140.611 148.773C120.983 136.258 107.937 114.307 107.937 89.3602C107.937 64.4137 120.983 42.4641 140.611 29.9482ZM116.124 22.0236C117.379 21.6395 118.273 23.2286 117.315 24.1256C99.892 40.4299 89.0019 63.6211 89.0019 89.3582C89.0019 115.095 99.8941 138.286 117.315 154.591C118.272 155.487 117.378 157.077 116.124 156.693C87.3002 147.86 66.2779 121.024 66.2779 89.3582C66.2779 57.6921 87.3012 30.8573 116.124 22.0236ZM18.9359 89.3602C18.9359 54.8552 43.8925 26.0837 76.709 20.0918C77.9435 19.8668 78.6935 21.4175 77.7519 22.2445C59.1145 38.6198 47.3405 62.6086 47.3405 89.3592C47.3405 116.11 59.1145 140.101 77.7519 156.475C78.6955 157.302 77.9435 158.853 76.709 158.628C43.8925 152.635 18.9359 123.865 18.9359 89.3602ZM89.4042 319.586C50.5473 319.586 18.9369 287.989 18.9369 249.153C18.9369 210.318 50.5493 178.721 89.4042 178.721C128.259 178.721 159.872 210.318 159.872 249.153C159.872 287.989 128.259 319.586 89.4042 319.586ZM159.389 308.564C158.203 309.321 156.876 307.794 157.782 306.72C170.901 291.169 178.807 271.085 178.807 249.152C178.807 227.22 170.901 207.134 157.782 191.585C156.876 190.51 158.202 188.985 159.389 189.739C179.017 202.254 192.063 224.206 192.063 249.152C192.063 274.099 179.017 296.047 159.389 308.564ZM183.876 316.489C182.621 316.873 181.727 315.284 182.685 314.387C200.108 298.083 210.998 274.89 210.998 249.153C210.998 223.416 200.107 200.225 182.685 183.921C181.728 183.025 182.622 181.435 183.876 181.819C212.7 190.651 233.722 217.487 233.722 249.153C233.722 280.819 212.699 307.655 183.876 316.489ZM223.291 318.422C222.057 318.647 221.306 317.096 222.247 316.269C240.885 299.894 252.659 275.905 252.659 249.153C252.659 222.402 240.885 198.412 222.247 182.039C221.305 181.211 222.057 179.66 223.291 179.886C256.106 185.879 281.064 214.649 281.064 249.153C281.064 283.657 256.106 312.43 223.291 318.422Z" fill="black"/>
</svg>
