<svg width="1000" height="189" viewBox="0 0 1000 189" fill="none" xmlns="http://www.w3.org/2000/svg">
<path d="M123.662 106.65C123.662 134.663 101.047 154.58 65.3586 154.58C52.287 154.58 40.8738 152.505 31.1219 148.562C21.37 144.412 10.9964 137.357 0 127.399L17.4287 106.856C27.1806 115.363 35.4811 121.382 42.3283 124.494C49.1754 127.606 57.059 129.266 65.9813 129.266C83.2041 129.266 94.8232 121.588 94.8232 108.932C94.8232 104.989 93.5788 102.084 91.2957 99.8021C86.5237 95.0301 80.0914 93.1629 64.5289 89.8433L57.4749 88.183C18.0504 78.639 6.6392 67.8495 6.6392 44.4024C6.6392 19.7107 29.4626 0.412752 62.8686 0.412752C74.9025 0.412752 85.2782 2.07307 93.9905 5.59956C102.912 9.12709 112.043 14.9377 121.795 23.2372L104.78 43.5717C96.2736 36.5177 89.2185 31.7457 83.2 29.2557C77.1835 26.7647 70.3364 25.5192 62.2438 25.5192C45.8516 25.5192 35.2711 32.9901 35.2711 43.5717C35.2711 47.3082 36.5156 50.2109 38.7987 52.495C41.2886 54.777 44.8161 56.6442 49.3802 58.0966C53.9453 59.549 61.2083 61.4162 71.1671 63.6982C108.93 73.0364 122.831 81.3359 123.661 106.648L123.662 106.65ZM201.366 45.0251V108.933C201.366 123.247 193.066 130.926 179.58 130.926C167.961 130.926 161.945 124.287 161.945 113.288V45.0251H134.97V120.759C134.97 141.302 147.421 154.373 172.526 154.373C187.674 154.373 198.047 148.979 203.65 139.848V151.054H228.342V45.0251H201.366ZM358.706 97.9359C358.706 131.963 338.579 153.959 311.607 153.959V153.957C297.707 153.957 287.123 149.393 279.861 140.054V188.4H252.887V45.0241H277.994V58.9252C285.671 47.5151 296.875 41.9114 311.814 41.9114C338.995 41.9114 358.706 64.322 358.706 97.9359ZM331.321 97.9359C331.321 78.0173 321.361 65.1517 305.591 65.1517C289.822 65.1517 278.825 78.0173 278.825 97.9359C278.825 118.061 289.822 130.512 305.383 130.512C320.945 130.512 331.321 117.855 331.321 97.9359ZM459.918 117.026L475.066 133.624C460.127 148.771 445.809 154.372 427.759 154.372C393.522 154.372 372.151 132.379 372.151 98.5566C372.151 65.5654 392.484 41.4976 425.476 41.4976C457.222 41.4976 475.066 61.2103 475.066 94.4074C475.066 98.3497 474.858 101.876 474.651 104.989H398.502C400.993 121.381 410.743 131.548 428.38 131.548C434.399 131.548 439.379 130.512 443.528 128.436C447.885 126.361 453.28 122.627 459.919 117.026H459.918ZM399.122 85.6941H448.713C447.675 71.376 438.961 62.6617 424.644 62.6617C410.742 62.6617 402.233 71.376 399.122 85.6941ZM753.97 97.9359C753.97 131.548 730.938 154.372 698.985 154.372C666.826 154.372 643.793 131.548 643.793 97.9359C643.793 64.3241 666.826 41.4996 698.985 41.4996C730.939 41.4996 753.97 64.3241 753.97 97.9359ZM726.583 97.9339C726.583 77.8083 715.584 64.3199 698.985 64.3199C682.179 64.3199 671.181 77.8063 671.181 97.9339C671.181 118.475 682.179 131.548 698.985 131.548C715.584 131.548 726.583 118.476 726.583 97.9339ZM964.725 41.4976C950.824 41.4976 940.242 46.6844 932.978 57.059C927.168 47.1002 917.002 41.4976 903.515 41.4976C889.614 41.4976 879.447 46.6844 873.222 56.8511V45.0251H848.117V151.053H875.089V85.902C875.089 73.4512 881.937 64.7368 893.765 64.7368C904.967 64.7368 910.57 71.584 910.57 85.0703V151.053H937.543V85.902C937.543 73.4512 944.39 64.7368 956.216 64.7368C967.835 64.7368 973.022 72.4136 973.022 85.0703V151.053H1000V76.9766C1000 55.1908 987.134 41.4976 964.725 41.4976ZM819.186 43.5737C806.943 43.5737 798.229 49.1774 792.627 60.5886V45.0261H767.522V151.054H794.494V98.7656C794.494 79.6776 803.415 68.2654 817.733 68.2654C818.615 68.2654 819.562 68.3037 820.57 68.3854C825.228 68.7588 829.891 69.093 834.554 69.3909V45.4016C831.655 45.0727 828.765 44.6723 825.886 44.1882C823.447 43.7775 821.214 43.5737 819.186 43.5737ZM540.141 43.5737C527.898 43.5737 519.184 49.1774 513.582 60.5886V45.0261H488.477V151.054H515.449V98.7656C515.449 79.6776 524.372 68.2654 538.69 68.2654C539.57 68.2654 540.518 68.3037 541.525 68.3854C546.184 68.7588 550.846 69.093 555.509 69.3909V45.4016C552.611 45.0727 549.721 44.6723 546.841 44.1882C544.403 43.7775 542.169 43.5737 540.141 43.5737ZM584.449 34.4446V46.6958L572.452 46.6916C571.275 46.6916 570.096 46.6802 568.918 46.6709V70.2619C570.483 70.2743 572.049 70.3147 573.614 70.3126L584.449 70.3043V151.052H611.422V70.2836L630.234 70.2692V46.7092L611.422 46.703V35.8959C611.422 25.9371 615.365 22.2007 624.287 22.2007C627.607 22.2007 631.758 22.8244 636.738 23.8599L641.508 3.73442C634.039 1.24446 626.572 0 618.893 0C596.483 0 584.449 11.4112 584.449 34.4436V34.4446Z" fill="black"/>
</svg>
