<svg width="900" height="511" viewBox="0 0 900 511" fill="none" xmlns="http://www.w3.org/2000/svg">
<path d="M588.313 230.828C588.572 201.28 573.227 175.31 550.03 160.619C547.057 158.737 547.057 154.461 550.03 152.579C573.227 137.888 588.572 111.918 588.313 82.3696C587.918 37.0185 550.02 0.899475 504.666 0.899475H396.126C350.772 0.899475 312.874 37.0174 312.479 82.3696C312.22 111.918 327.565 137.888 350.762 152.579C353.735 154.461 353.735 158.738 350.762 160.62C327.565 175.31 312.22 201.28 312.479 230.828C312.874 276.179 350.772 312.298 396.126 312.298H504.666C550.019 312.298 587.917 276.18 588.313 230.828ZM506.112 18.3098C541.839 18.3098 570.904 47.3755 570.904 83.1013C570.904 118.827 541.837 147.893 506.112 147.893C470.386 147.893 441.319 118.826 441.319 83.1013C441.319 47.3766 470.386 18.3098 506.112 18.3098ZM441.763 28.4491C442.853 27.7531 444.073 29.1581 443.24 30.1462C431.179 44.4501 423.909 62.9271 423.909 83.1023C423.909 103.278 431.179 121.755 443.24 136.06C444.073 137.048 442.855 138.451 441.763 137.757C423.716 126.243 411.72 106.051 411.72 83.1023C411.72 60.1536 423.716 39.9623 441.763 28.4491ZM419.249 21.1587C420.403 20.8053 421.225 22.2675 420.343 23.0928C404.323 38.0917 394.31 59.4252 394.31 83.1013C394.31 106.777 404.324 128.111 420.343 143.11C421.223 143.933 420.4 145.396 419.249 145.043C392.745 136.917 373.416 112.231 373.416 83.1013C373.416 53.972 392.746 29.2853 419.249 21.1587ZM329.886 83.1023C329.886 51.3612 352.833 24.8944 383.007 19.3819C384.142 19.175 384.832 20.6006 383.967 21.3624C366.83 36.4259 356.003 58.4932 356.003 83.1023C356.003 107.711 366.83 129.78 383.967 144.842C384.833 145.603 384.142 147.03 383.007 146.823C352.833 141.309 329.886 114.843 329.886 83.1023ZM394.68 294.888C358.952 294.888 329.888 265.822 329.888 230.097C329.888 194.371 358.955 165.305 394.68 165.305C430.406 165.305 459.473 194.372 459.473 230.097C459.473 265.821 430.406 294.888 394.68 294.888ZM459.029 284.749C457.938 285.445 456.719 284.041 457.552 283.052C469.613 268.748 476.883 250.271 476.883 230.096C476.883 209.92 469.613 191.443 457.552 177.138C456.719 176.15 457.937 174.747 459.029 175.441C477.076 186.954 489.072 207.147 489.072 230.096C489.072 253.044 477.076 273.235 459.029 284.749ZM481.543 292.039C480.389 292.393 479.567 290.93 480.449 290.105C496.469 275.106 506.482 253.773 506.482 230.097C506.482 206.421 496.468 185.087 480.449 170.088C479.569 169.265 480.392 167.802 481.543 168.155C508.047 176.281 527.376 200.967 527.376 230.097C527.376 259.226 508.046 283.913 481.543 292.039ZM517.785 293.817C516.65 294.024 515.96 292.597 516.825 291.837C533.962 276.772 544.789 254.705 544.789 230.097C544.789 205.489 533.962 183.42 516.825 168.358C515.959 167.596 516.65 166.169 517.785 166.377C547.959 171.89 570.906 198.355 570.906 230.097C570.906 261.838 547.959 288.306 517.785 293.817ZM111.295 436.985C111.295 462.196 90.9414 480.122 58.8221 480.122C47.0579 480.122 36.786 478.255 28.0097 474.705C19.2335 470.971 9.89688 464.621 0 455.658L15.6852 437.17C24.4615 444.826 31.9329 450.243 38.0952 453.044C44.2574 455.845 51.3539 457.339 59.3834 457.339C74.8834 457.339 85.3405 450.428 85.3405 439.039C85.3405 435.49 84.2199 432.876 82.1662 430.821C77.8713 426.526 72.0829 424.846 58.0764 421.858L51.7278 420.364C16.2466 411.775 5.97692 402.064 5.97692 380.961C5.97692 358.739 26.5174 341.372 56.583 341.372C67.4141 341.372 76.7518 342.865 84.5928 346.039C92.6223 349.214 100.84 354.444 109.617 361.913L94.3032 380.215C86.6476 373.866 80.2978 369.571 74.8812 367.33C69.4657 365.088 63.3034 363.967 56.0206 363.967C41.2674 363.967 31.7454 370.692 31.7454 380.215C31.7454 383.578 32.8661 386.19 34.9198 388.245C37.161 390.3 40.3353 391.981 44.4438 393.288C48.5524 394.595 55.0885 396.275 64.0523 398.33C98.0389 406.734 110.551 414.203 111.298 436.985H111.295ZM205.504 381.522V476.948H183.281V466.862C178.24 475.08 168.903 479.936 155.27 479.936C132.675 479.936 121.469 468.171 121.469 449.682V381.522H145.747V442.959C145.747 452.858 151.162 458.833 161.619 458.833C173.756 458.833 181.226 451.923 181.226 439.039V381.522H205.503H205.504ZM280.634 378.72C267.189 378.72 257.106 383.764 250.197 394.033V381.522H227.6V510.559H251.878V467.049C258.413 475.453 267.938 479.562 280.449 479.562H280.448C304.723 479.563 322.838 459.766 322.838 429.142C322.838 398.889 305.098 378.72 280.634 378.72ZM274.847 458.461C260.841 458.461 250.943 447.255 250.943 429.142C250.943 411.216 260.841 399.637 275.033 399.637C289.225 399.637 298.19 411.216 298.19 429.142C298.19 447.068 288.852 458.461 274.847 458.461ZM399.172 456.591C395.437 458.461 390.955 459.393 385.539 459.393C369.665 459.393 360.89 450.243 358.648 435.49H427.182C427.369 432.688 427.555 429.514 427.555 425.965C427.555 396.088 411.496 378.347 382.925 378.347C353.232 378.347 334.933 400.008 334.933 429.7C334.933 460.141 354.166 479.934 384.978 479.934C401.224 479.934 414.111 474.893 427.555 461.261H427.557L413.923 446.323C407.949 451.363 403.093 454.724 399.172 456.591ZM382.176 397.395C395.063 397.395 402.905 405.239 403.839 418.124H359.207C362.007 405.239 369.665 397.395 382.176 397.395ZM629.085 378.348C600.141 378.348 579.412 398.891 579.412 429.142C579.412 459.393 600.141 479.934 629.085 479.934C657.843 479.934 678.572 459.393 678.572 429.142C678.572 398.891 657.844 378.348 629.085 378.348ZM629.085 459.393C613.96 459.393 604.061 447.627 604.061 429.14C604.061 411.026 613.96 398.888 629.085 398.888C644.024 398.888 653.923 411.027 653.923 429.14C653.923 447.629 644.024 459.393 629.085 459.393ZM900 410.279V476.945L899.997 476.948H875.721V417.563C875.721 406.172 871.052 399.263 860.595 399.263C849.951 399.263 843.789 407.106 843.789 418.311V476.948H819.514V417.563C819.514 405.425 814.47 399.263 804.388 399.263C793.743 399.263 787.581 407.106 787.581 418.311V476.948H763.304V381.522H785.9V392.165C791.502 383.015 800.653 378.347 813.164 378.347C825.302 378.347 834.452 383.389 839.68 392.353C846.217 383.015 855.741 378.347 868.252 378.347C888.421 378.347 900 390.672 900 410.279ZM743.3 380.768C745.891 381.204 748.493 381.565 751.101 381.86V403.451C746.904 403.183 742.708 402.882 738.515 402.546C737.609 402.473 736.756 402.438 735.963 402.438C723.077 402.438 715.047 412.709 715.047 429.889V476.949H690.771V381.523H713.366V395.529C718.408 385.258 726.251 380.216 737.27 380.216C739.095 380.216 741.105 380.4 743.3 380.768ZM492.157 380.768C494.748 381.204 497.349 381.565 499.958 381.86V403.451C495.761 403.183 491.565 402.882 487.373 402.546C486.466 402.473 485.613 402.438 484.82 402.438C471.934 402.438 463.905 412.709 463.905 429.889V476.949H439.628V381.523H462.224V395.529C467.265 385.258 475.109 380.216 486.127 380.216C487.952 380.216 489.962 380.4 492.157 380.768ZM557.001 341C563.912 341 570.633 342.121 577.355 344.362L573.061 362.475C568.58 361.543 564.844 360.981 561.856 360.981C553.827 360.981 550.277 364.344 550.277 373.307V383.032L567.213 383.038V404.243L550.277 404.256V476.948H526.001V404.274L516.255 404.282C514.846 404.283 513.436 404.247 512.028 404.235V383.004C513.088 383.013 514.15 383.023 515.21 383.023L526.001 383.026V372C526.001 351.271 536.832 341 557.001 341Z" fill="black"/>
</svg>
