<svg width="1000" height="1000" viewBox="0 0 1000 1000" fill="none" xmlns="http://www.w3.org/2000/svg">
<g clip-path="url(#clip0_4644_1931)">
<path d="M1000 500C1000 223.858 776.142 0 500 0C223.858 0 0 223.858 0 500C0 776.142 223.858 1000 500 1000C776.142 1000 1000 776.142 1000 500Z" fill="#9CE500"/>
<path d="M711.9 510.943C705.652 506.99 705.652 498.013 711.9 494.06C760.65 463.218 792.895 408.688 792.352 346.648C791.522 251.43 711.88 175.592 616.567 175.592H388.475C293.162 175.592 213.52 251.425 212.687 346.648C212.145 408.688 244.391 463.218 293.14 494.06C299.387 498.013 299.387 506.993 293.14 510.948C244.391 541.785 212.145 596.315 212.687 658.355C213.518 753.573 293.16 829.407 388.472 829.407H616.565C711.875 829.407 791.517 753.578 792.35 658.355C792.895 596.315 760.65 541.785 711.9 510.943ZM619.607 212.147C694.687 212.147 755.767 273.175 755.767 348.185C755.767 423.193 694.685 484.22 619.607 484.22C544.532 484.22 483.445 423.193 483.445 348.185C483.445 273.175 544.53 212.147 619.607 212.147ZM484.377 233.435C486.67 231.975 489.235 234.923 487.485 236.998C462.135 267.03 446.857 305.825 446.857 348.185C446.857 390.548 462.135 429.34 487.485 459.375C489.235 461.453 486.672 464.395 484.377 462.938C446.452 438.768 421.245 396.37 421.245 348.185C421.245 300.003 446.452 257.61 484.377 233.435ZM437.062 218.129C439.487 217.388 441.215 220.457 439.365 222.189C405.697 253.68 384.655 298.473 384.655 348.183C384.655 397.893 405.702 442.683 439.365 474.175C441.215 475.908 439.487 478.978 437.062 478.235C381.367 461.175 340.747 409.343 340.747 348.183C340.747 287.02 381.37 235.191 437.062 218.129ZM249.27 348.185C249.27 281.543 297.492 225.971 360.902 214.398C363.287 213.964 364.737 216.959 362.917 218.556C326.905 250.185 304.155 296.518 304.155 348.185C304.155 399.853 326.905 446.19 362.917 477.815C364.742 479.413 363.287 482.408 360.902 481.973C297.492 470.398 249.27 414.83 249.27 348.185ZM385.432 792.855C310.352 792.855 249.272 731.828 249.272 656.818C249.272 581.81 310.355 520.783 385.432 520.783C460.512 520.783 521.595 581.81 521.595 656.818C521.595 731.828 460.512 792.855 385.432 792.855ZM520.662 771.565C518.37 773.028 515.807 770.078 517.557 768.005C542.907 737.968 558.182 699.178 558.182 656.815C558.182 614.455 542.907 575.66 517.557 545.628C515.807 543.55 518.37 540.605 520.662 542.063C558.59 566.235 583.797 608.633 583.797 656.815C583.797 704.998 558.59 747.39 520.662 771.565ZM567.977 786.872C565.552 787.615 563.825 784.545 565.677 782.813C599.342 751.323 620.385 706.528 620.385 656.818C620.385 607.108 599.34 562.315 565.677 530.825C563.827 529.095 565.555 526.023 567.977 526.765C623.675 543.823 664.295 595.655 664.295 656.818C664.295 717.978 623.672 769.81 567.977 786.872ZM644.137 790.605C641.755 791.04 640.302 788.045 642.122 786.448C678.135 754.82 700.885 708.487 700.885 656.818C700.885 605.15 678.135 558.813 642.122 527.19C640.3 525.59 641.755 522.595 644.137 523.033C707.545 534.608 755.772 590.175 755.772 656.818C755.772 723.46 707.545 779.033 644.137 790.605Z" fill="#254544"/>
</g>
<defs>
<clipPath id="clip0_4644_1931">
<rect width="1000" height="1000" fill="white"/>
</clipPath>
</defs>
</svg>
